<mxfile host="Electron" agent="Mozilla/5.0 (X11; Linux x86_64) AppleWebKit/537.36 (KHTML, like Gecko) draw.io/26.1.1 Chrome/132.0.6834.210 Electron/34.3.3 Safari/537.36" version="26.1.1" pages="2">
  <diagram name="Page-1" id="ANTwTXddWIhQnkPVEtuF">
    <mxGraphModel dx="3240" dy="1275" grid="1" gridSize="10" guides="1" tooltips="1" connect="1" arrows="1" fold="1" page="1" pageScale="1" pageWidth="850" pageHeight="1100" math="0" shadow="0">
      <root>
        <mxCell id="0" />
        <mxCell id="1" parent="0" />
        <mxCell id="GUek7ClpfsdmQVSgXdxh-1" value="USERS" style="rounded=1;arcSize=10;whiteSpace=wrap;html=1;align=center;fillColor=#cce5ff;strokeColor=#36393d;" parent="1" vertex="1">
          <mxGeometry x="375" y="380" width="100" height="40" as="geometry" />
        </mxCell>
        <mxCell id="GUek7ClpfsdmQVSgXdxh-2" value="user_id" style="ellipse;whiteSpace=wrap;html=1;align=center;fontStyle=4;fillColor=#cce5ff;strokeColor=#36393d;" parent="1" vertex="1">
          <mxGeometry x="375" y="300" width="100" height="40" as="geometry" />
        </mxCell>
        <mxCell id="GUek7ClpfsdmQVSgXdxh-3" value="username" style="ellipse;whiteSpace=wrap;html=1;align=center;fillColor=#cce5ff;strokeColor=#36393d;" parent="1" vertex="1">
          <mxGeometry x="510" y="300" width="100" height="40" as="geometry" />
        </mxCell>
        <mxCell id="GUek7ClpfsdmQVSgXdxh-4" value="password" style="ellipse;whiteSpace=wrap;html=1;align=center;fillColor=#cce5ff;strokeColor=#36393d;" parent="1" vertex="1">
          <mxGeometry x="510" y="380" width="100" height="40" as="geometry" />
        </mxCell>
        <mxCell id="GUek7ClpfsdmQVSgXdxh-6" value="ROLES" style="rounded=1;arcSize=10;whiteSpace=wrap;html=1;align=center;fillColor=#cdeb8b;strokeColor=#36393d;" parent="1" vertex="1">
          <mxGeometry x="30" y="380" width="100" height="40" as="geometry" />
        </mxCell>
        <mxCell id="GUek7ClpfsdmQVSgXdxh-7" value="role_id" style="ellipse;whiteSpace=wrap;html=1;align=center;fontStyle=4;fillColor=#cdeb8b;strokeColor=#36393d;" parent="1" vertex="1">
          <mxGeometry x="-120" y="300" width="100" height="40" as="geometry" />
        </mxCell>
        <mxCell id="GUek7ClpfsdmQVSgXdxh-9" value="name" style="ellipse;whiteSpace=wrap;html=1;align=center;fillColor=#cdeb8b;strokeColor=#36393d;" parent="1" vertex="1">
          <mxGeometry x="-120" y="380" width="100" height="40" as="geometry" />
        </mxCell>
        <mxCell id="GUek7ClpfsdmQVSgXdxh-14" value="DEVICES" style="rounded=1;arcSize=10;whiteSpace=wrap;html=1;align=center;fillColor=#ffcc99;strokeColor=#36393d;" parent="1" vertex="1">
          <mxGeometry x="375" y="889" width="100" height="40" as="geometry" />
        </mxCell>
        <mxCell id="GUek7ClpfsdmQVSgXdxh-15" value="device_id" style="ellipse;whiteSpace=wrap;html=1;align=center;fontStyle=4;fillColor=#ffcc99;strokeColor=#36393d;" parent="1" vertex="1">
          <mxGeometry x="520" y="889" width="100" height="40" as="geometry" />
        </mxCell>
        <mxCell id="GUek7ClpfsdmQVSgXdxh-17" value="DEVICE_TYPES" style="rounded=1;arcSize=10;whiteSpace=wrap;html=1;align=center;fillColor=#FFF2CC;strokeColor=#D6B656;" parent="1" vertex="1">
          <mxGeometry x="375" y="1159" width="100" height="40" as="geometry" />
        </mxCell>
        <mxCell id="GUek7ClpfsdmQVSgXdxh-18" value="name" style="ellipse;whiteSpace=wrap;html=1;align=center;fillColor=#FFF2CC;strokeColor=#D6B656;" parent="1" vertex="1">
          <mxGeometry x="520" y="1159" width="100" height="40" as="geometry" />
        </mxCell>
        <mxCell id="GUek7ClpfsdmQVSgXdxh-19" value="name" style="ellipse;whiteSpace=wrap;html=1;align=center;fillColor=#ffcc99;strokeColor=#36393d;" parent="1" vertex="1">
          <mxGeometry x="520" y="809" width="100" height="40" as="geometry" />
        </mxCell>
        <mxCell id="GUek7ClpfsdmQVSgXdxh-20" value="status" style="ellipse;whiteSpace=wrap;html=1;align=center;fillColor=#ffcc99;strokeColor=#36393d;" parent="1" vertex="1">
          <mxGeometry x="520" y="959" width="100" height="40" as="geometry" />
        </mxCell>
        <mxCell id="GUek7ClpfsdmQVSgXdxh-22" value="d_type_id" style="ellipse;whiteSpace=wrap;html=1;align=center;fontStyle=4;fillColor=#FFF2CC;strokeColor=#D6B656;" parent="1" vertex="1">
          <mxGeometry x="520" y="1270" width="100" height="40" as="geometry" />
        </mxCell>
        <mxCell id="GUek7ClpfsdmQVSgXdxh-23" value="SENSORS" style="rounded=1;arcSize=10;whiteSpace=wrap;html=1;align=center;fillColor=#f5f5f5;strokeColor=#666666;fontColor=#333333;" parent="1" vertex="1">
          <mxGeometry x="30" y="889" width="100" height="40" as="geometry" />
        </mxCell>
        <mxCell id="GUek7ClpfsdmQVSgXdxh-24" value="sensor_id" style="ellipse;whiteSpace=wrap;html=1;align=center;fontStyle=4;fillColor=#f5f5f5;strokeColor=#666666;fontColor=#333333;" parent="1" vertex="1">
          <mxGeometry x="-120" y="809" width="100" height="40" as="geometry" />
        </mxCell>
        <mxCell id="GUek7ClpfsdmQVSgXdxh-25" value="SENSOR_TYPES" style="rounded=1;arcSize=10;whiteSpace=wrap;html=1;align=center;fillColor=#d5e8d4;strokeColor=#82b366;" parent="1" vertex="1">
          <mxGeometry x="30" y="1159" width="100" height="40" as="geometry" />
        </mxCell>
        <mxCell id="GUek7ClpfsdmQVSgXdxh-26" value="s_type_id" style="ellipse;whiteSpace=wrap;html=1;align=center;fontStyle=4;fillColor=#d5e8d4;strokeColor=#82b366;" parent="1" vertex="1">
          <mxGeometry x="-120" y="1270" width="100" height="40" as="geometry" />
        </mxCell>
        <mxCell id="GUek7ClpfsdmQVSgXdxh-27" value="name" style="ellipse;whiteSpace=wrap;html=1;align=center;fillColor=#d5e8d4;strokeColor=#82b366;" parent="1" vertex="1">
          <mxGeometry x="-120" y="1159" width="100" height="40" as="geometry" />
        </mxCell>
        <mxCell id="GUek7ClpfsdmQVSgXdxh-28" value="value" style="ellipse;whiteSpace=wrap;html=1;align=center;fillColor=#f5f5f5;strokeColor=#666666;fontColor=#333333;" parent="1" vertex="1">
          <mxGeometry x="-120" y="858" width="100" height="40" as="geometry" />
        </mxCell>
        <mxCell id="GUek7ClpfsdmQVSgXdxh-29" value="timestamp" style="ellipse;whiteSpace=wrap;html=1;align=center;fillColor=#f5f5f5;strokeColor=#666666;fontColor=#333333;" parent="1" vertex="1">
          <mxGeometry x="-120" y="959" width="100" height="40" as="geometry" />
        </mxCell>
        <mxCell id="GUek7ClpfsdmQVSgXdxh-30" value="LOGS" style="rounded=1;arcSize=10;whiteSpace=wrap;html=1;align=center;fillColor=#ffcccc;strokeColor=#36393d;" parent="1" vertex="1">
          <mxGeometry x="30" y="620" width="100" height="40" as="geometry" />
        </mxCell>
        <mxCell id="GUek7ClpfsdmQVSgXdxh-31" value="log_id" style="ellipse;whiteSpace=wrap;html=1;align=center;fontStyle=4;fillColor=#ffcccc;strokeColor=#36393d;" parent="1" vertex="1">
          <mxGeometry x="-120" y="580" width="100" height="40" as="geometry" />
        </mxCell>
        <mxCell id="GUek7ClpfsdmQVSgXdxh-32" value="action" style="ellipse;whiteSpace=wrap;html=1;align=center;fillColor=#ffcccc;strokeColor=#36393d;" parent="1" vertex="1">
          <mxGeometry x="-120" y="520" width="100" height="40" as="geometry" />
        </mxCell>
        <mxCell id="GUek7ClpfsdmQVSgXdxh-33" value="timestamp" style="ellipse;whiteSpace=wrap;html=1;align=center;fillColor=#ffcccc;strokeColor=#36393d;" parent="1" vertex="1">
          <mxGeometry x="-120" y="700" width="100" height="40" as="geometry" />
        </mxCell>
        <mxCell id="GUek7ClpfsdmQVSgXdxh-39" value="SCHEDULES" style="rounded=1;arcSize=10;whiteSpace=wrap;html=1;align=center;fillColor=#e1d5e7;strokeColor=#9673a6;" parent="1" vertex="1">
          <mxGeometry x="182.5" y="1159" width="135" height="40" as="geometry" />
        </mxCell>
        <mxCell id="GUek7ClpfsdmQVSgXdxh-40" value="schedule_id" style="ellipse;whiteSpace=wrap;html=1;align=center;fontStyle=4;fillColor=#e1d5e7;strokeColor=#9673a6;" parent="1" vertex="1">
          <mxGeometry x="30" y="1270" width="100" height="40" as="geometry" />
        </mxCell>
        <mxCell id="GUek7ClpfsdmQVSgXdxh-41" value="action" style="ellipse;whiteSpace=wrap;html=1;align=center;fillColor=#e1d5e7;strokeColor=#9673a6;" parent="1" vertex="1">
          <mxGeometry x="140" y="1270" width="100" height="40" as="geometry" />
        </mxCell>
        <mxCell id="GUek7ClpfsdmQVSgXdxh-42" value="time" style="ellipse;whiteSpace=wrap;html=1;align=center;fillColor=#e1d5e7;strokeColor=#9673a6;" parent="1" vertex="1">
          <mxGeometry x="250" y="1270" width="100" height="40" as="geometry" />
        </mxCell>
        <mxCell id="GUek7ClpfsdmQVSgXdxh-43" value="condition" style="ellipse;whiteSpace=wrap;html=1;align=center;fillColor=#e1d5e7;strokeColor=#9673a6;" parent="1" vertex="1">
          <mxGeometry x="358" y="1270" width="100" height="40" as="geometry" />
        </mxCell>
        <mxCell id="GUek7ClpfsdmQVSgXdxh-44" value="" style="endArrow=none;html=1;rounded=0;" parent="1" source="GUek7ClpfsdmQVSgXdxh-6" target="GUek7ClpfsdmQVSgXdxh-9" edge="1">
          <mxGeometry relative="1" as="geometry">
            <mxPoint x="120" y="310" as="sourcePoint" />
            <mxPoint x="280" y="310" as="targetPoint" />
          </mxGeometry>
        </mxCell>
        <mxCell id="GUek7ClpfsdmQVSgXdxh-45" value="" style="endArrow=none;html=1;rounded=0;" parent="1" source="GUek7ClpfsdmQVSgXdxh-6" target="GUek7ClpfsdmQVSgXdxh-7" edge="1">
          <mxGeometry relative="1" as="geometry">
            <mxPoint x="243" y="280" as="sourcePoint" />
            <mxPoint x="268" y="239" as="targetPoint" />
          </mxGeometry>
        </mxCell>
        <mxCell id="GUek7ClpfsdmQVSgXdxh-46" value="" style="endArrow=none;html=1;rounded=0;" parent="1" source="GUek7ClpfsdmQVSgXdxh-1" target="GUek7ClpfsdmQVSgXdxh-2" edge="1">
          <mxGeometry relative="1" as="geometry">
            <mxPoint x="239" y="280" as="sourcePoint" />
            <mxPoint x="267" y="239" as="targetPoint" />
          </mxGeometry>
        </mxCell>
        <mxCell id="GUek7ClpfsdmQVSgXdxh-47" value="" style="endArrow=none;html=1;rounded=0;" parent="1" source="GUek7ClpfsdmQVSgXdxh-1" target="GUek7ClpfsdmQVSgXdxh-3" edge="1">
          <mxGeometry relative="1" as="geometry">
            <mxPoint x="458" y="390" as="sourcePoint" />
            <mxPoint x="523" y="319" as="targetPoint" />
          </mxGeometry>
        </mxCell>
        <mxCell id="GUek7ClpfsdmQVSgXdxh-48" value="" style="endArrow=none;html=1;rounded=0;" parent="1" source="GUek7ClpfsdmQVSgXdxh-1" target="GUek7ClpfsdmQVSgXdxh-4" edge="1">
          <mxGeometry relative="1" as="geometry">
            <mxPoint x="485" y="396" as="sourcePoint" />
            <mxPoint x="579" y="371" as="targetPoint" />
          </mxGeometry>
        </mxCell>
        <mxCell id="GUek7ClpfsdmQVSgXdxh-55" value="" style="endArrow=none;html=1;rounded=0;" parent="1" source="GUek7ClpfsdmQVSgXdxh-18" target="GUek7ClpfsdmQVSgXdxh-17" edge="1">
          <mxGeometry relative="1" as="geometry">
            <mxPoint x="488" y="1170.1399999999999" as="sourcePoint" />
            <mxPoint x="433" y="1203.1399999999999" as="targetPoint" />
          </mxGeometry>
        </mxCell>
        <mxCell id="GUek7ClpfsdmQVSgXdxh-56" value="" style="endArrow=none;html=1;rounded=0;" parent="1" source="GUek7ClpfsdmQVSgXdxh-22" target="GUek7ClpfsdmQVSgXdxh-17" edge="1">
          <mxGeometry relative="1" as="geometry">
            <mxPoint x="558" y="1220.1399999999999" as="sourcePoint" />
            <mxPoint x="552" y="1240.1399999999999" as="targetPoint" />
          </mxGeometry>
        </mxCell>
        <mxCell id="GUek7ClpfsdmQVSgXdxh-57" value="" style="endArrow=none;html=1;rounded=0;" parent="1" source="GUek7ClpfsdmQVSgXdxh-28" target="GUek7ClpfsdmQVSgXdxh-23" edge="1">
          <mxGeometry relative="1" as="geometry">
            <mxPoint x="375" y="880" as="sourcePoint" />
            <mxPoint x="355" y="880" as="targetPoint" />
          </mxGeometry>
        </mxCell>
        <mxCell id="GUek7ClpfsdmQVSgXdxh-58" value="" style="endArrow=none;html=1;rounded=0;" parent="1" source="GUek7ClpfsdmQVSgXdxh-29" target="GUek7ClpfsdmQVSgXdxh-23" edge="1">
          <mxGeometry relative="1" as="geometry">
            <mxPoint x="84" y="878" as="sourcePoint" />
            <mxPoint x="58" y="900" as="targetPoint" />
          </mxGeometry>
        </mxCell>
        <mxCell id="GUek7ClpfsdmQVSgXdxh-59" value="" style="endArrow=none;html=1;rounded=0;" parent="1" source="GUek7ClpfsdmQVSgXdxh-23" target="GUek7ClpfsdmQVSgXdxh-24" edge="1">
          <mxGeometry relative="1" as="geometry">
            <mxPoint x="108" y="955" as="sourcePoint" />
            <mxPoint x="77" y="940" as="targetPoint" />
          </mxGeometry>
        </mxCell>
        <mxCell id="GUek7ClpfsdmQVSgXdxh-60" value="" style="endArrow=none;html=1;rounded=0;" parent="1" source="GUek7ClpfsdmQVSgXdxh-26" target="GUek7ClpfsdmQVSgXdxh-25" edge="1">
          <mxGeometry relative="1" as="geometry">
            <mxPoint x="140" y="1159" as="sourcePoint" />
            <mxPoint x="113" y="1128" as="targetPoint" />
          </mxGeometry>
        </mxCell>
        <mxCell id="GUek7ClpfsdmQVSgXdxh-61" value="" style="endArrow=none;html=1;rounded=0;" parent="1" source="GUek7ClpfsdmQVSgXdxh-27" target="GUek7ClpfsdmQVSgXdxh-25" edge="1">
          <mxGeometry relative="1" as="geometry">
            <mxPoint x="171" y="1195" as="sourcePoint" />
            <mxPoint x="140" y="1193" as="targetPoint" />
          </mxGeometry>
        </mxCell>
        <mxCell id="GUek7ClpfsdmQVSgXdxh-62" value="" style="endArrow=none;html=1;rounded=0;" parent="1" source="GUek7ClpfsdmQVSgXdxh-30" target="GUek7ClpfsdmQVSgXdxh-32" edge="1">
          <mxGeometry relative="1" as="geometry">
            <mxPoint x="119" y="750" as="sourcePoint" />
            <mxPoint x="115" y="720" as="targetPoint" />
          </mxGeometry>
        </mxCell>
        <mxCell id="GUek7ClpfsdmQVSgXdxh-63" value="" style="endArrow=none;html=1;rounded=0;" parent="1" source="GUek7ClpfsdmQVSgXdxh-30" target="GUek7ClpfsdmQVSgXdxh-33" edge="1">
          <mxGeometry relative="1" as="geometry">
            <mxPoint x="-5" y="627" as="sourcePoint" />
            <mxPoint x="18" y="621" as="targetPoint" />
          </mxGeometry>
        </mxCell>
        <mxCell id="GUek7ClpfsdmQVSgXdxh-64" value="" style="endArrow=none;html=1;rounded=0;" parent="1" source="GUek7ClpfsdmQVSgXdxh-31" target="GUek7ClpfsdmQVSgXdxh-30" edge="1">
          <mxGeometry relative="1" as="geometry">
            <mxPoint x="-32" y="660" as="sourcePoint" />
            <mxPoint x="-6" y="682" as="targetPoint" />
          </mxGeometry>
        </mxCell>
        <mxCell id="GUek7ClpfsdmQVSgXdxh-65" value="" style="endArrow=none;html=1;rounded=0;" parent="1" source="GUek7ClpfsdmQVSgXdxh-40" target="GUek7ClpfsdmQVSgXdxh-39" edge="1">
          <mxGeometry relative="1" as="geometry">
            <mxPoint x="439" y="919" as="sourcePoint" />
            <mxPoint x="455" y="940" as="targetPoint" />
          </mxGeometry>
        </mxCell>
        <mxCell id="GUek7ClpfsdmQVSgXdxh-66" value="" style="endArrow=none;html=1;rounded=0;" parent="1" source="GUek7ClpfsdmQVSgXdxh-41" target="GUek7ClpfsdmQVSgXdxh-39" edge="1">
          <mxGeometry relative="1" as="geometry">
            <mxPoint x="289" y="1120" as="sourcePoint" />
            <mxPoint x="298" y="1140" as="targetPoint" />
          </mxGeometry>
        </mxCell>
        <mxCell id="GUek7ClpfsdmQVSgXdxh-67" value="" style="endArrow=none;html=1;rounded=0;" parent="1" source="GUek7ClpfsdmQVSgXdxh-42" target="GUek7ClpfsdmQVSgXdxh-39" edge="1">
          <mxGeometry relative="1" as="geometry">
            <mxPoint x="227" y="1147" as="sourcePoint" />
            <mxPoint x="240" y="1149" as="targetPoint" />
          </mxGeometry>
        </mxCell>
        <mxCell id="GUek7ClpfsdmQVSgXdxh-68" value="" style="endArrow=none;html=1;rounded=0;" parent="1" source="GUek7ClpfsdmQVSgXdxh-43" target="GUek7ClpfsdmQVSgXdxh-39" edge="1">
          <mxGeometry relative="1" as="geometry">
            <mxPoint x="237" y="1186" as="sourcePoint" />
            <mxPoint x="254" y="1180" as="targetPoint" />
          </mxGeometry>
        </mxCell>
        <mxCell id="GUek7ClpfsdmQVSgXdxh-75" value="" style="endArrow=none;html=1;rounded=0;" parent="1" source="GUek7ClpfsdmQVSgXdxh-14" target="GUek7ClpfsdmQVSgXdxh-20" edge="1">
          <mxGeometry relative="1" as="geometry">
            <mxPoint x="424" y="939" as="sourcePoint" />
            <mxPoint x="385" y="990" as="targetPoint" />
          </mxGeometry>
        </mxCell>
        <mxCell id="GUek7ClpfsdmQVSgXdxh-76" value="" style="endArrow=none;html=1;rounded=0;" parent="1" source="GUek7ClpfsdmQVSgXdxh-14" target="GUek7ClpfsdmQVSgXdxh-19" edge="1">
          <mxGeometry relative="1" as="geometry">
            <mxPoint x="390" y="930" as="sourcePoint" />
            <mxPoint x="344" y="940" as="targetPoint" />
          </mxGeometry>
        </mxCell>
        <mxCell id="GUek7ClpfsdmQVSgXdxh-77" value="" style="endArrow=none;html=1;rounded=0;" parent="1" source="GUek7ClpfsdmQVSgXdxh-14" target="GUek7ClpfsdmQVSgXdxh-15" edge="1">
          <mxGeometry relative="1" as="geometry">
            <mxPoint x="390" y="905" as="sourcePoint" />
            <mxPoint x="341" y="891" as="targetPoint" />
          </mxGeometry>
        </mxCell>
        <mxCell id="GUek7ClpfsdmQVSgXdxh-78" value="HAS_ROLE" style="shape=rhombus;perimeter=rhombusPerimeter;whiteSpace=wrap;html=1;align=center;fillColor=#ffff88;strokeColor=#36393d;" parent="1" vertex="1">
          <mxGeometry x="190" y="370" width="120" height="60" as="geometry" />
        </mxCell>
        <mxCell id="GUek7ClpfsdmQVSgXdxh-79" value="" style="endArrow=none;html=1;rounded=0;shape=link;" parent="1" source="GUek7ClpfsdmQVSgXdxh-78" target="GUek7ClpfsdmQVSgXdxh-1" edge="1">
          <mxGeometry relative="1" as="geometry">
            <mxPoint x="270" y="390" as="sourcePoint" />
            <mxPoint x="430" y="390" as="targetPoint" />
          </mxGeometry>
        </mxCell>
        <mxCell id="GUek7ClpfsdmQVSgXdxh-81" value="N" style="edgeLabel;html=1;align=center;verticalAlign=middle;resizable=0;points=[];" parent="GUek7ClpfsdmQVSgXdxh-79" vertex="1" connectable="0">
          <mxGeometry x="-0.0158" relative="1" as="geometry">
            <mxPoint as="offset" />
          </mxGeometry>
        </mxCell>
        <mxCell id="GUek7ClpfsdmQVSgXdxh-80" value="" style="endArrow=none;html=1;rounded=0;" parent="1" source="GUek7ClpfsdmQVSgXdxh-6" target="GUek7ClpfsdmQVSgXdxh-78" edge="1">
          <mxGeometry relative="1" as="geometry">
            <mxPoint x="348" y="374" as="sourcePoint" />
            <mxPoint x="387" y="390" as="targetPoint" />
          </mxGeometry>
        </mxCell>
        <mxCell id="GUek7ClpfsdmQVSgXdxh-82" value="1" style="edgeLabel;html=1;align=center;verticalAlign=middle;resizable=0;points=[];" parent="GUek7ClpfsdmQVSgXdxh-80" vertex="1" connectable="0">
          <mxGeometry x="-0.1148" y="-1" relative="1" as="geometry">
            <mxPoint as="offset" />
          </mxGeometry>
        </mxCell>
        <mxCell id="GUek7ClpfsdmQVSgXdxh-84" value="" style="endArrow=none;html=1;rounded=0;shape=link;" parent="1" source="GUek7ClpfsdmQVSgXdxh-86" target="GUek7ClpfsdmQVSgXdxh-14" edge="1">
          <mxGeometry relative="1" as="geometry">
            <mxPoint x="330" y="779" as="sourcePoint" />
            <mxPoint x="435" y="789" as="targetPoint" />
          </mxGeometry>
        </mxCell>
        <mxCell id="GUek7ClpfsdmQVSgXdxh-85" value="N" style="edgeLabel;html=1;align=center;verticalAlign=middle;resizable=0;points=[];" parent="GUek7ClpfsdmQVSgXdxh-84" vertex="1" connectable="0">
          <mxGeometry x="-0.0158" relative="1" as="geometry">
            <mxPoint as="offset" />
          </mxGeometry>
        </mxCell>
        <mxCell id="GUek7ClpfsdmQVSgXdxh-86" value="HAS_DEVICE" style="shape=rhombus;perimeter=rhombusPerimeter;whiteSpace=wrap;html=1;align=center;fillColor=#ffff88;strokeColor=#36393d;" parent="1" vertex="1">
          <mxGeometry x="365" y="759" width="120" height="60" as="geometry" />
        </mxCell>
        <mxCell id="GUek7ClpfsdmQVSgXdxh-87" value="" style="endArrow=none;html=1;rounded=0;" parent="1" source="GUek7ClpfsdmQVSgXdxh-94" target="GUek7ClpfsdmQVSgXdxh-86" edge="1">
          <mxGeometry relative="1" as="geometry">
            <mxPoint x="280" y="830" as="sourcePoint" />
            <mxPoint x="457" y="820" as="targetPoint" />
          </mxGeometry>
        </mxCell>
        <mxCell id="GUek7ClpfsdmQVSgXdxh-88" value="1" style="edgeLabel;html=1;align=center;verticalAlign=middle;resizable=0;points=[];" parent="GUek7ClpfsdmQVSgXdxh-87" vertex="1" connectable="0">
          <mxGeometry x="-0.1148" y="-1" relative="1" as="geometry">
            <mxPoint as="offset" />
          </mxGeometry>
        </mxCell>
        <mxCell id="GUek7ClpfsdmQVSgXdxh-89" value="HAS_DEVICE_TYPE" style="shape=rhombus;perimeter=rhombusPerimeter;whiteSpace=wrap;html=1;align=center;fillColor=#ffff88;strokeColor=#36393d;" parent="1" vertex="1">
          <mxGeometry x="353" y="999" width="145" height="60" as="geometry" />
        </mxCell>
        <mxCell id="GUek7ClpfsdmQVSgXdxh-90" value="" style="endArrow=none;html=1;rounded=0;shape=link;" parent="1" source="GUek7ClpfsdmQVSgXdxh-89" target="GUek7ClpfsdmQVSgXdxh-14" edge="1">
          <mxGeometry relative="1" as="geometry">
            <mxPoint x="210" y="949" as="sourcePoint" />
            <mxPoint x="305" y="1059" as="targetPoint" />
          </mxGeometry>
        </mxCell>
        <mxCell id="GUek7ClpfsdmQVSgXdxh-91" value="N" style="edgeLabel;html=1;align=center;verticalAlign=middle;resizable=0;points=[];" parent="GUek7ClpfsdmQVSgXdxh-90" vertex="1" connectable="0">
          <mxGeometry x="-0.0158" relative="1" as="geometry">
            <mxPoint as="offset" />
          </mxGeometry>
        </mxCell>
        <mxCell id="GUek7ClpfsdmQVSgXdxh-92" value="" style="endArrow=none;html=1;rounded=0;" parent="1" source="GUek7ClpfsdmQVSgXdxh-17" target="GUek7ClpfsdmQVSgXdxh-89" edge="1">
          <mxGeometry relative="1" as="geometry">
            <mxPoint x="305" y="839" as="sourcePoint" />
            <mxPoint x="327" y="949" as="targetPoint" />
          </mxGeometry>
        </mxCell>
        <mxCell id="GUek7ClpfsdmQVSgXdxh-93" value="1" style="edgeLabel;html=1;align=center;verticalAlign=middle;resizable=0;points=[];" parent="GUek7ClpfsdmQVSgXdxh-92" vertex="1" connectable="0">
          <mxGeometry x="-0.1148" y="-1" relative="1" as="geometry">
            <mxPoint as="offset" />
          </mxGeometry>
        </mxCell>
        <mxCell id="GUek7ClpfsdmQVSgXdxh-94" value="SMART_HOMES" style="rounded=1;arcSize=10;whiteSpace=wrap;html=1;align=center;fillColor=#eeeeee;strokeColor=#36393d;" parent="1" vertex="1">
          <mxGeometry x="375" y="620" width="100" height="40" as="geometry" />
        </mxCell>
        <mxCell id="GUek7ClpfsdmQVSgXdxh-95" value="smart_home_id" style="ellipse;whiteSpace=wrap;html=1;align=center;fontStyle=4;fillColor=#eeeeee;strokeColor=#36393d;" parent="1" vertex="1">
          <mxGeometry x="520" y="560" width="100" height="40" as="geometry" />
        </mxCell>
        <mxCell id="GUek7ClpfsdmQVSgXdxh-96" value="address" style="ellipse;whiteSpace=wrap;html=1;align=center;fillColor=#eeeeee;strokeColor=#36393d;" parent="1" vertex="1">
          <mxGeometry x="520" y="680" width="100" height="40" as="geometry" />
        </mxCell>
        <mxCell id="GUek7ClpfsdmQVSgXdxh-97" value="name" style="ellipse;whiteSpace=wrap;html=1;align=center;fillColor=#eeeeee;strokeColor=#36393d;" parent="1" vertex="1">
          <mxGeometry x="520" y="620" width="100" height="40" as="geometry" />
        </mxCell>
        <mxCell id="GUek7ClpfsdmQVSgXdxh-98" value="" style="endArrow=none;html=1;rounded=0;" parent="1" source="GUek7ClpfsdmQVSgXdxh-94" target="GUek7ClpfsdmQVSgXdxh-97" edge="1">
          <mxGeometry relative="1" as="geometry">
            <mxPoint x="305" y="760" as="sourcePoint" />
            <mxPoint x="369" y="699" as="targetPoint" />
          </mxGeometry>
        </mxCell>
        <mxCell id="GUek7ClpfsdmQVSgXdxh-99" value="" style="endArrow=none;html=1;rounded=0;" parent="1" source="GUek7ClpfsdmQVSgXdxh-94" target="GUek7ClpfsdmQVSgXdxh-96" edge="1">
          <mxGeometry relative="1" as="geometry">
            <mxPoint x="321" y="780" as="sourcePoint" />
            <mxPoint x="425" y="751" as="targetPoint" />
          </mxGeometry>
        </mxCell>
        <mxCell id="GUek7ClpfsdmQVSgXdxh-100" value="" style="endArrow=none;html=1;rounded=0;" parent="1" source="GUek7ClpfsdmQVSgXdxh-94" target="GUek7ClpfsdmQVSgXdxh-95" edge="1">
          <mxGeometry relative="1" as="geometry">
            <mxPoint x="406" y="660" as="sourcePoint" />
            <mxPoint x="342" y="712" as="targetPoint" />
          </mxGeometry>
        </mxCell>
        <mxCell id="GUek7ClpfsdmQVSgXdxh-101" value="" style="endArrow=none;html=1;rounded=0;shape=link;" parent="1" source="GUek7ClpfsdmQVSgXdxh-103" target="GUek7ClpfsdmQVSgXdxh-94" edge="1">
          <mxGeometry relative="1" as="geometry">
            <mxPoint x="287.5" y="530" as="sourcePoint" />
            <mxPoint x="392.5" y="540" as="targetPoint" />
          </mxGeometry>
        </mxCell>
        <mxCell id="GUek7ClpfsdmQVSgXdxh-102" value="N" style="edgeLabel;html=1;align=center;verticalAlign=middle;resizable=0;points=[];" parent="GUek7ClpfsdmQVSgXdxh-101" vertex="1" connectable="0">
          <mxGeometry x="-0.0158" relative="1" as="geometry">
            <mxPoint as="offset" />
          </mxGeometry>
        </mxCell>
        <mxCell id="GUek7ClpfsdmQVSgXdxh-103" value="HAS_SMART_HOME" style="shape=rhombus;perimeter=rhombusPerimeter;whiteSpace=wrap;html=1;align=center;fillColor=#ffff88;strokeColor=#36393d;" parent="1" vertex="1">
          <mxGeometry x="348" y="490" width="155" height="60" as="geometry" />
        </mxCell>
        <mxCell id="GUek7ClpfsdmQVSgXdxh-104" value="" style="endArrow=none;html=1;rounded=0;" parent="1" source="GUek7ClpfsdmQVSgXdxh-1" target="GUek7ClpfsdmQVSgXdxh-103" edge="1">
          <mxGeometry relative="1" as="geometry">
            <mxPoint x="147.5" y="540" as="sourcePoint" />
            <mxPoint x="404.5" y="530" as="targetPoint" />
          </mxGeometry>
        </mxCell>
        <mxCell id="GUek7ClpfsdmQVSgXdxh-105" value="1" style="edgeLabel;html=1;align=center;verticalAlign=middle;resizable=0;points=[];" parent="GUek7ClpfsdmQVSgXdxh-104" vertex="1" connectable="0">
          <mxGeometry x="-0.1148" y="-1" relative="1" as="geometry">
            <mxPoint as="offset" />
          </mxGeometry>
        </mxCell>
        <mxCell id="GUek7ClpfsdmQVSgXdxh-106" value="mode" style="ellipse;whiteSpace=wrap;html=1;align=center;fillColor=#ffcccc;strokeColor=#36393d;" parent="1" vertex="1">
          <mxGeometry x="-120" y="640" width="100" height="40" as="geometry" />
        </mxCell>
        <mxCell id="GUek7ClpfsdmQVSgXdxh-107" value="" style="endArrow=none;html=1;rounded=0;" parent="1" source="GUek7ClpfsdmQVSgXdxh-30" target="GUek7ClpfsdmQVSgXdxh-106" edge="1">
          <mxGeometry relative="1" as="geometry">
            <mxPoint x="95" y="667" as="sourcePoint" />
            <mxPoint x="225" y="770" as="targetPoint" />
          </mxGeometry>
        </mxCell>
        <mxCell id="GUek7ClpfsdmQVSgXdxh-108" value="HAS_LOG" style="shape=rhombus;perimeter=rhombusPerimeter;whiteSpace=wrap;html=1;align=center;fillColor=#ffff88;strokeColor=#36393d;" parent="1" vertex="1">
          <mxGeometry x="190" y="610" width="120" height="60" as="geometry" />
        </mxCell>
        <mxCell id="GUek7ClpfsdmQVSgXdxh-109" value="" style="endArrow=none;html=1;rounded=0;shape=link;" parent="1" source="GUek7ClpfsdmQVSgXdxh-108" target="GUek7ClpfsdmQVSgXdxh-30" edge="1">
          <mxGeometry relative="1" as="geometry">
            <mxPoint x="250" y="560" as="sourcePoint" />
            <mxPoint x="355" y="570" as="targetPoint" />
          </mxGeometry>
        </mxCell>
        <mxCell id="GUek7ClpfsdmQVSgXdxh-110" value="N" style="edgeLabel;html=1;align=center;verticalAlign=middle;resizable=0;points=[];" parent="GUek7ClpfsdmQVSgXdxh-109" vertex="1" connectable="0">
          <mxGeometry x="-0.0158" relative="1" as="geometry">
            <mxPoint as="offset" />
          </mxGeometry>
        </mxCell>
        <mxCell id="GUek7ClpfsdmQVSgXdxh-111" value="" style="endArrow=none;html=1;rounded=0;" parent="1" source="GUek7ClpfsdmQVSgXdxh-94" target="GUek7ClpfsdmQVSgXdxh-108" edge="1">
          <mxGeometry relative="1" as="geometry">
            <mxPoint x="110" y="570" as="sourcePoint" />
            <mxPoint x="367" y="560" as="targetPoint" />
          </mxGeometry>
        </mxCell>
        <mxCell id="GUek7ClpfsdmQVSgXdxh-112" value="1" style="edgeLabel;html=1;align=center;verticalAlign=middle;resizable=0;points=[];" parent="GUek7ClpfsdmQVSgXdxh-111" vertex="1" connectable="0">
          <mxGeometry x="-0.1148" y="-1" relative="1" as="geometry">
            <mxPoint as="offset" />
          </mxGeometry>
        </mxCell>
        <mxCell id="GUek7ClpfsdmQVSgXdxh-114" value="" style="endArrow=none;html=1;rounded=0;" parent="1" source="GUek7ClpfsdmQVSgXdxh-115" target="GUek7ClpfsdmQVSgXdxh-23" edge="1">
          <mxGeometry relative="1" as="geometry">
            <mxPoint x="360" y="930" as="sourcePoint" />
            <mxPoint x="15" y="951" as="targetPoint" />
          </mxGeometry>
        </mxCell>
        <mxCell id="GUek7ClpfsdmQVSgXdxh-115" value="unit" style="ellipse;whiteSpace=wrap;html=1;align=center;fillColor=#f5f5f5;strokeColor=#666666;fontColor=#333333;" parent="1" vertex="1">
          <mxGeometry x="-120" y="909" width="100" height="40" as="geometry" />
        </mxCell>
        <mxCell id="GUek7ClpfsdmQVSgXdxh-116" value="HAS_SENSOR" style="shape=rhombus;perimeter=rhombusPerimeter;whiteSpace=wrap;html=1;align=center;fillColor=#ffff88;strokeColor=#36393d;" parent="1" vertex="1">
          <mxGeometry x="190" y="879" width="120" height="60" as="geometry" />
        </mxCell>
        <mxCell id="GUek7ClpfsdmQVSgXdxh-117" value="" style="endArrow=none;html=1;rounded=0;" parent="1" source="GUek7ClpfsdmQVSgXdxh-14" target="GUek7ClpfsdmQVSgXdxh-116" edge="1">
          <mxGeometry relative="1" as="geometry">
            <mxPoint x="240" y="710" as="sourcePoint" />
            <mxPoint x="272" y="870" as="targetPoint" />
          </mxGeometry>
        </mxCell>
        <mxCell id="GUek7ClpfsdmQVSgXdxh-118" value="1" style="edgeLabel;html=1;align=center;verticalAlign=middle;resizable=0;points=[];" parent="GUek7ClpfsdmQVSgXdxh-117" vertex="1" connectable="0">
          <mxGeometry x="-0.1148" y="-1" relative="1" as="geometry">
            <mxPoint as="offset" />
          </mxGeometry>
        </mxCell>
        <mxCell id="GUek7ClpfsdmQVSgXdxh-119" value="" style="endArrow=none;html=1;rounded=0;shape=link;" parent="1" source="GUek7ClpfsdmQVSgXdxh-116" target="GUek7ClpfsdmQVSgXdxh-23" edge="1">
          <mxGeometry relative="1" as="geometry">
            <mxPoint x="145" y="829" as="sourcePoint" />
            <mxPoint x="240" y="939" as="targetPoint" />
          </mxGeometry>
        </mxCell>
        <mxCell id="GUek7ClpfsdmQVSgXdxh-120" value="N" style="edgeLabel;html=1;align=center;verticalAlign=middle;resizable=0;points=[];" parent="GUek7ClpfsdmQVSgXdxh-119" vertex="1" connectable="0">
          <mxGeometry x="-0.0158" relative="1" as="geometry">
            <mxPoint as="offset" />
          </mxGeometry>
        </mxCell>
        <mxCell id="GUek7ClpfsdmQVSgXdxh-121" value="HAS_SENSOR_TYPE" style="shape=rhombus;perimeter=rhombusPerimeter;whiteSpace=wrap;html=1;align=center;fillColor=#ffff88;strokeColor=#36393d;" parent="1" vertex="1">
          <mxGeometry x="7.5" y="999" width="145" height="60" as="geometry" />
        </mxCell>
        <mxCell id="GUek7ClpfsdmQVSgXdxh-122" value="" style="endArrow=none;html=1;rounded=0;" parent="1" source="GUek7ClpfsdmQVSgXdxh-25" target="GUek7ClpfsdmQVSgXdxh-121" edge="1">
          <mxGeometry relative="1" as="geometry">
            <mxPoint x="172" y="1169" as="sourcePoint" />
            <mxPoint x="74" y="959" as="targetPoint" />
          </mxGeometry>
        </mxCell>
        <mxCell id="GUek7ClpfsdmQVSgXdxh-123" value="1" style="edgeLabel;html=1;align=center;verticalAlign=middle;resizable=0;points=[];" parent="GUek7ClpfsdmQVSgXdxh-122" vertex="1" connectable="0">
          <mxGeometry x="-0.1148" y="-1" relative="1" as="geometry">
            <mxPoint as="offset" />
          </mxGeometry>
        </mxCell>
        <mxCell id="GUek7ClpfsdmQVSgXdxh-124" value="" style="endArrow=none;html=1;rounded=0;shape=link;" parent="1" source="GUek7ClpfsdmQVSgXdxh-121" target="GUek7ClpfsdmQVSgXdxh-23" edge="1">
          <mxGeometry relative="1" as="geometry">
            <mxPoint x="-43" y="959" as="sourcePoint" />
            <mxPoint x="172" y="939" as="targetPoint" />
          </mxGeometry>
        </mxCell>
        <mxCell id="GUek7ClpfsdmQVSgXdxh-125" value="N" style="edgeLabel;html=1;align=center;verticalAlign=middle;resizable=0;points=[];" parent="GUek7ClpfsdmQVSgXdxh-124" vertex="1" connectable="0">
          <mxGeometry x="-0.0158" relative="1" as="geometry">
            <mxPoint as="offset" />
          </mxGeometry>
        </mxCell>
        <mxCell id="GUek7ClpfsdmQVSgXdxh-126" value="HAS_DEVICE_TYPE" style="shape=rhombus;perimeter=rhombusPerimeter;whiteSpace=wrap;html=1;align=center;fillColor=#ffff88;strokeColor=#36393d;" parent="1" vertex="1">
          <mxGeometry x="177.5" y="999" width="145" height="60" as="geometry" />
        </mxCell>
        <mxCell id="GUek7ClpfsdmQVSgXdxh-127" value="" style="endArrow=none;html=1;rounded=0;" parent="1" source="GUek7ClpfsdmQVSgXdxh-14" target="GUek7ClpfsdmQVSgXdxh-126" edge="1">
          <mxGeometry relative="1" as="geometry">
            <mxPoint x="380" y="960" as="sourcePoint" />
            <mxPoint x="194" y="969" as="targetPoint" />
          </mxGeometry>
        </mxCell>
        <mxCell id="GUek7ClpfsdmQVSgXdxh-128" value="1" style="edgeLabel;html=1;align=center;verticalAlign=middle;resizable=0;points=[];" parent="GUek7ClpfsdmQVSgXdxh-127" vertex="1" connectable="0">
          <mxGeometry x="-0.1148" y="-1" relative="1" as="geometry">
            <mxPoint as="offset" />
          </mxGeometry>
        </mxCell>
        <mxCell id="GUek7ClpfsdmQVSgXdxh-129" value="" style="endArrow=none;html=1;rounded=0;shape=link;" parent="1" source="GUek7ClpfsdmQVSgXdxh-126" target="GUek7ClpfsdmQVSgXdxh-39" edge="1">
          <mxGeometry relative="1" as="geometry">
            <mxPoint x="77" y="969" as="sourcePoint" />
            <mxPoint x="292" y="949" as="targetPoint" />
          </mxGeometry>
        </mxCell>
        <mxCell id="GUek7ClpfsdmQVSgXdxh-130" value="N" style="edgeLabel;html=1;align=center;verticalAlign=middle;resizable=0;points=[];" parent="GUek7ClpfsdmQVSgXdxh-129" vertex="1" connectable="0">
          <mxGeometry x="-0.0158" relative="1" as="geometry">
            <mxPoint as="offset" />
          </mxGeometry>
        </mxCell>
        <mxCell id="GUek7ClpfsdmQVSgXdxh-140" value="SERVOS" style="rounded=1;arcSize=10;whiteSpace=wrap;html=1;align=center;fillColor=#bac8d3;strokeColor=#23445d;" parent="1" vertex="1">
          <mxGeometry x="30" y="759" width="100" height="40" as="geometry" />
        </mxCell>
        <mxCell id="GUek7ClpfsdmQVSgXdxh-141" value="password" style="ellipse;whiteSpace=wrap;html=1;align=center;fillColor=#bac8d3;strokeColor=#23445d;" parent="1" vertex="1">
          <mxGeometry x="-120" y="759" width="100" height="40" as="geometry" />
        </mxCell>
        <mxCell id="GUek7ClpfsdmQVSgXdxh-142" value="" style="endArrow=none;html=1;rounded=0;" parent="1" source="GUek7ClpfsdmQVSgXdxh-140" target="GUek7ClpfsdmQVSgXdxh-141" edge="1">
          <mxGeometry relative="1" as="geometry">
            <mxPoint x="140" y="799" as="sourcePoint" />
            <mxPoint x="23" y="850" as="targetPoint" />
          </mxGeometry>
        </mxCell>
        <mxCell id="GUek7ClpfsdmQVSgXdxh-146" value="" style="endArrow=none;html=1;rounded=0;entryX=1;entryY=0.5;entryDx=0;entryDy=0;entryPerimeter=0;" parent="1" target="GUek7ClpfsdmQVSgXdxh-148" edge="1">
          <mxGeometry relative="1" as="geometry">
            <mxPoint x="250" y="779" as="sourcePoint" />
            <mxPoint x="280" y="790" as="targetPoint" />
          </mxGeometry>
        </mxCell>
        <mxCell id="GUek7ClpfsdmQVSgXdxh-148" value="" style="shape=requiredInterface;html=1;verticalLabelPosition=bottom;sketch=0;rotation=-180;" parent="1" vertex="1">
          <mxGeometry x="200" y="769" width="10" height="20" as="geometry" />
        </mxCell>
        <mxCell id="GUek7ClpfsdmQVSgXdxh-149" value="" style="endArrow=none;html=1;rounded=0;exitX=1;exitY=0.5;exitDx=0;exitDy=0;exitPerimeter=0;" parent="1" source="GUek7ClpfsdmQVSgXdxh-148" target="GUek7ClpfsdmQVSgXdxh-140" edge="1">
          <mxGeometry relative="1" as="geometry">
            <mxPoint x="409" y="899" as="sourcePoint" />
            <mxPoint x="261" y="786" as="targetPoint" />
          </mxGeometry>
        </mxCell>
        <mxCell id="GUek7ClpfsdmQVSgXdxh-150" value="d" style="ellipse;whiteSpace=wrap;html=1;aspect=fixed;fillColor=#fad9d5;strokeColor=#ae4132;" parent="1" vertex="1">
          <mxGeometry x="250" y="759" width="40" height="40" as="geometry" />
        </mxCell>
        <mxCell id="GUek7ClpfsdmQVSgXdxh-151" value="" style="endArrow=none;html=1;rounded=0;" parent="1" source="GUek7ClpfsdmQVSgXdxh-150" target="GUek7ClpfsdmQVSgXdxh-14" edge="1">
          <mxGeometry relative="1" as="geometry">
            <mxPoint x="435" y="670" as="sourcePoint" />
            <mxPoint x="435" y="769" as="targetPoint" />
          </mxGeometry>
        </mxCell>
      </root>
    </mxGraphModel>
  </diagram>
  <diagram id="1Elfr-9SarcvBLckKtOk" name="Page-2">
    <mxGraphModel dx="989" dy="528" grid="1" gridSize="10" guides="1" tooltips="1" connect="1" arrows="1" fold="1" page="1" pageScale="1" pageWidth="850" pageHeight="1100" math="0" shadow="0">
      <root>
        <mxCell id="0" />
        <mxCell id="1" parent="0" />
        <mxCell id="2hdaCkGYuWO3uLKrf5wz-1" value="USER" style="rounded=1;arcSize=10;whiteSpace=wrap;html=1;align=center;" vertex="1" parent="1">
          <mxGeometry x="420" y="250" width="100" height="40" as="geometry" />
        </mxCell>
        <mxCell id="2hdaCkGYuWO3uLKrf5wz-2" value="fullName" style="ellipse;whiteSpace=wrap;html=1;align=center;" vertex="1" parent="1">
          <mxGeometry x="260" y="210" width="100" height="40" as="geometry" />
        </mxCell>
        <mxCell id="2hdaCkGYuWO3uLKrf5wz-3" value="password" style="ellipse;whiteSpace=wrap;html=1;align=center;" vertex="1" parent="1">
          <mxGeometry x="260" y="150" width="100" height="40" as="geometry" />
        </mxCell>
        <mxCell id="2hdaCkGYuWO3uLKrf5wz-4" value="email" style="ellipse;whiteSpace=wrap;html=1;align=center;" vertex="1" parent="1">
          <mxGeometry x="380" y="150" width="100" height="40" as="geometry" />
        </mxCell>
        <mxCell id="2hdaCkGYuWO3uLKrf5wz-5" value="phoneNumber" style="ellipse;whiteSpace=wrap;html=1;align=center;" vertex="1" parent="1">
          <mxGeometry x="500" y="150" width="100" height="40" as="geometry" />
        </mxCell>
        <mxCell id="2hdaCkGYuWO3uLKrf5wz-6" value="userId" style="ellipse;whiteSpace=wrap;html=1;align=center;fontStyle=4;" vertex="1" parent="1">
          <mxGeometry x="260" y="270" width="100" height="40" as="geometry" />
        </mxCell>
        <mxCell id="2hdaCkGYuWO3uLKrf5wz-7" value="CONTACT" style="rounded=1;arcSize=10;whiteSpace=wrap;html=1;align=center;" vertex="1" parent="1">
          <mxGeometry x="260" y="620" width="100" height="40" as="geometry" />
        </mxCell>
        <mxCell id="2hdaCkGYuWO3uLKrf5wz-8" value="contactId" style="ellipse;whiteSpace=wrap;html=1;align=center;fontStyle=4;" vertex="1" parent="1">
          <mxGeometry x="20" y="770" width="100" height="40" as="geometry" />
        </mxCell>
        <mxCell id="2hdaCkGYuWO3uLKrf5wz-9" value="name" style="ellipse;whiteSpace=wrap;html=1;align=center;" vertex="1" parent="1">
          <mxGeometry x="240" y="770" width="100" height="40" as="geometry" />
        </mxCell>
        <mxCell id="2hdaCkGYuWO3uLKrf5wz-10" value="comment" style="ellipse;whiteSpace=wrap;html=1;align=center;" vertex="1" parent="1">
          <mxGeometry x="130" y="770" width="100" height="40" as="geometry" />
        </mxCell>
        <mxCell id="2hdaCkGYuWO3uLKrf5wz-11" value="email" style="ellipse;whiteSpace=wrap;html=1;align=center;" vertex="1" parent="1">
          <mxGeometry x="350" y="770" width="100" height="40" as="geometry" />
        </mxCell>
        <mxCell id="2hdaCkGYuWO3uLKrf5wz-36" style="rounded=0;orthogonalLoop=1;jettySize=auto;html=1;endArrow=none;startFill=0;" edge="1" parent="1" source="2hdaCkGYuWO3uLKrf5wz-12" target="2hdaCkGYuWO3uLKrf5wz-7">
          <mxGeometry relative="1" as="geometry" />
        </mxCell>
        <mxCell id="2hdaCkGYuWO3uLKrf5wz-12" value="phoneNumber" style="ellipse;whiteSpace=wrap;html=1;align=center;" vertex="1" parent="1">
          <mxGeometry x="460" y="770" width="100" height="40" as="geometry" />
        </mxCell>
        <mxCell id="2hdaCkGYuWO3uLKrf5wz-13" value="CAR" style="rounded=1;arcSize=10;whiteSpace=wrap;html=1;align=center;" vertex="1" parent="1">
          <mxGeometry x="780" y="250" width="100" height="40" as="geometry" />
        </mxCell>
        <mxCell id="2hdaCkGYuWO3uLKrf5wz-14" value="carId" style="ellipse;whiteSpace=wrap;html=1;align=center;fontStyle=4;" vertex="1" parent="1">
          <mxGeometry x="790" y="150" width="100" height="40" as="geometry" />
        </mxCell>
        <mxCell id="2hdaCkGYuWO3uLKrf5wz-15" value="title" style="ellipse;whiteSpace=wrap;html=1;align=center;" vertex="1" parent="1">
          <mxGeometry x="1030" y="200" width="100" height="40" as="geometry" />
        </mxCell>
        <mxCell id="2hdaCkGYuWO3uLKrf5wz-16" value="CAR_IMAGE" style="rounded=1;arcSize=10;whiteSpace=wrap;html=1;align=center;" vertex="1" parent="1">
          <mxGeometry x="610" y="480" width="100" height="40" as="geometry" />
        </mxCell>
        <mxCell id="2hdaCkGYuWO3uLKrf5wz-17" value="imageUrl" style="ellipse;whiteSpace=wrap;html=1;align=center;" vertex="1" parent="1">
          <mxGeometry x="690" y="540" width="100" height="40" as="geometry" />
        </mxCell>
        <mxCell id="2hdaCkGYuWO3uLKrf5wz-18" value="carImageId" style="ellipse;whiteSpace=wrap;html=1;align=center;fontStyle=4;" vertex="1" parent="1">
          <mxGeometry x="550" y="540" width="100" height="40" as="geometry" />
        </mxCell>
        <mxCell id="2hdaCkGYuWO3uLKrf5wz-19" value="description" style="ellipse;whiteSpace=wrap;html=1;align=center;" vertex="1" parent="1">
          <mxGeometry x="1030" y="250" width="100" height="40" as="geometry" />
        </mxCell>
        <mxCell id="2hdaCkGYuWO3uLKrf5wz-20" value="price" style="ellipse;whiteSpace=wrap;html=1;align=center;" vertex="1" parent="1">
          <mxGeometry x="1030" y="300" width="100" height="40" as="geometry" />
        </mxCell>
        <mxCell id="2hdaCkGYuWO3uLKrf5wz-21" value="FEATURE" style="rounded=1;arcSize=10;whiteSpace=wrap;html=1;align=center;" vertex="1" parent="1">
          <mxGeometry x="860" y="500" width="100" height="40" as="geometry" />
        </mxCell>
        <mxCell id="2hdaCkGYuWO3uLKrf5wz-22" value="featureId" style="ellipse;whiteSpace=wrap;html=1;align=center;fontStyle=4;" vertex="1" parent="1">
          <mxGeometry x="900" y="700" width="100" height="40" as="geometry" />
        </mxCell>
        <mxCell id="2hdaCkGYuWO3uLKrf5wz-23" value="name" style="ellipse;whiteSpace=wrap;html=1;align=center;" vertex="1" parent="1">
          <mxGeometry x="1040" y="700" width="100" height="40" as="geometry" />
        </mxCell>
        <mxCell id="2hdaCkGYuWO3uLKrf5wz-29" value="capacity" style="ellipse;whiteSpace=wrap;html=1;align=center;" vertex="1" parent="1">
          <mxGeometry x="1030" y="350" width="100" height="40" as="geometry" />
        </mxCell>
        <mxCell id="2hdaCkGYuWO3uLKrf5wz-30" value="year" style="ellipse;whiteSpace=wrap;html=1;align=center;" vertex="1" parent="1">
          <mxGeometry x="910" y="150" width="100" height="40" as="geometry" />
        </mxCell>
        <mxCell id="2hdaCkGYuWO3uLKrf5wz-31" value="code" style="ellipse;whiteSpace=wrap;html=1;align=center;" vertex="1" parent="1">
          <mxGeometry x="760" y="680" width="100" height="40" as="geometry" />
        </mxCell>
        <mxCell id="2hdaCkGYuWO3uLKrf5wz-32" value="address" style="ellipse;whiteSpace=wrap;html=1;align=center;" vertex="1" parent="1">
          <mxGeometry x="1030" y="150" width="100" height="40" as="geometry" />
        </mxCell>
        <mxCell id="2hdaCkGYuWO3uLKrf5wz-33" value="EVALUATE" style="rounded=1;arcSize=10;whiteSpace=wrap;html=1;align=center;" vertex="1" parent="1">
          <mxGeometry x="1080" y="520" width="100" height="40" as="geometry" />
        </mxCell>
        <mxCell id="2hdaCkGYuWO3uLKrf5wz-34" value="rate" style="ellipse;whiteSpace=wrap;html=1;align=center;" vertex="1" parent="1">
          <mxGeometry x="1160" y="630" width="100" height="40" as="geometry" />
        </mxCell>
        <mxCell id="2hdaCkGYuWO3uLKrf5wz-35" value="&lt;u&gt;evaluateId&lt;/u&gt;" style="ellipse;whiteSpace=wrap;html=1;align=center;" vertex="1" parent="1">
          <mxGeometry x="1260" y="520" width="100" height="40" as="geometry" />
        </mxCell>
        <mxCell id="2hdaCkGYuWO3uLKrf5wz-37" style="rounded=0;orthogonalLoop=1;jettySize=auto;html=1;endArrow=none;startFill=0;" edge="1" parent="1" source="2hdaCkGYuWO3uLKrf5wz-9" target="2hdaCkGYuWO3uLKrf5wz-7">
          <mxGeometry relative="1" as="geometry">
            <mxPoint x="327" y="600" as="sourcePoint" />
            <mxPoint x="323" y="630" as="targetPoint" />
          </mxGeometry>
        </mxCell>
        <mxCell id="2hdaCkGYuWO3uLKrf5wz-38" style="rounded=0;orthogonalLoop=1;jettySize=auto;html=1;endArrow=none;startFill=0;" edge="1" parent="1" source="2hdaCkGYuWO3uLKrf5wz-11" target="2hdaCkGYuWO3uLKrf5wz-7">
          <mxGeometry relative="1" as="geometry">
            <mxPoint x="391" y="644" as="sourcePoint" />
            <mxPoint x="370" y="646" as="targetPoint" />
          </mxGeometry>
        </mxCell>
        <mxCell id="2hdaCkGYuWO3uLKrf5wz-39" style="rounded=0;orthogonalLoop=1;jettySize=auto;html=1;endArrow=none;startFill=0;" edge="1" parent="1" source="2hdaCkGYuWO3uLKrf5wz-10" target="2hdaCkGYuWO3uLKrf5wz-7">
          <mxGeometry relative="1" as="geometry">
            <mxPoint x="384" y="693" as="sourcePoint" />
            <mxPoint x="350" y="670" as="targetPoint" />
          </mxGeometry>
        </mxCell>
        <mxCell id="2hdaCkGYuWO3uLKrf5wz-40" style="rounded=0;orthogonalLoop=1;jettySize=auto;html=1;endArrow=none;startFill=0;" edge="1" parent="1" source="2hdaCkGYuWO3uLKrf5wz-8" target="2hdaCkGYuWO3uLKrf5wz-7">
          <mxGeometry relative="1" as="geometry">
            <mxPoint x="276" y="701" as="sourcePoint" />
            <mxPoint x="303" y="670" as="targetPoint" />
          </mxGeometry>
        </mxCell>
        <mxCell id="2hdaCkGYuWO3uLKrf5wz-41" style="rounded=0;orthogonalLoop=1;jettySize=auto;html=1;endArrow=none;startFill=0;" edge="1" parent="1" source="2hdaCkGYuWO3uLKrf5wz-1" target="2hdaCkGYuWO3uLKrf5wz-6">
          <mxGeometry relative="1" as="geometry">
            <mxPoint x="252.5" y="334.5" as="sourcePoint" />
            <mxPoint x="307.5" y="345.5" as="targetPoint" />
          </mxGeometry>
        </mxCell>
        <mxCell id="2hdaCkGYuWO3uLKrf5wz-42" style="rounded=0;orthogonalLoop=1;jettySize=auto;html=1;endArrow=none;startFill=0;" edge="1" parent="1" source="2hdaCkGYuWO3uLKrf5wz-1" target="2hdaCkGYuWO3uLKrf5wz-2">
          <mxGeometry relative="1" as="geometry">
            <mxPoint x="430" y="273" as="sourcePoint" />
            <mxPoint x="377" y="266" as="targetPoint" />
          </mxGeometry>
        </mxCell>
        <mxCell id="2hdaCkGYuWO3uLKrf5wz-43" style="rounded=0;orthogonalLoop=1;jettySize=auto;html=1;endArrow=none;startFill=0;" edge="1" parent="1" source="2hdaCkGYuWO3uLKrf5wz-1" target="2hdaCkGYuWO3uLKrf5wz-3">
          <mxGeometry relative="1" as="geometry">
            <mxPoint x="460" y="260" as="sourcePoint" />
            <mxPoint x="409" y="209" as="targetPoint" />
          </mxGeometry>
        </mxCell>
        <mxCell id="2hdaCkGYuWO3uLKrf5wz-44" style="rounded=0;orthogonalLoop=1;jettySize=auto;html=1;endArrow=none;startFill=0;" edge="1" parent="1" source="2hdaCkGYuWO3uLKrf5wz-1" target="2hdaCkGYuWO3uLKrf5wz-4">
          <mxGeometry relative="1" as="geometry">
            <mxPoint x="489" y="260" as="sourcePoint" />
            <mxPoint x="511" y="210" as="targetPoint" />
          </mxGeometry>
        </mxCell>
        <mxCell id="2hdaCkGYuWO3uLKrf5wz-45" style="rounded=0;orthogonalLoop=1;jettySize=auto;html=1;endArrow=none;startFill=0;" edge="1" parent="1" source="2hdaCkGYuWO3uLKrf5wz-1" target="2hdaCkGYuWO3uLKrf5wz-5">
          <mxGeometry relative="1" as="geometry">
            <mxPoint x="530" y="271" as="sourcePoint" />
            <mxPoint x="544" y="268" as="targetPoint" />
          </mxGeometry>
        </mxCell>
        <mxCell id="2hdaCkGYuWO3uLKrf5wz-46" style="rounded=0;orthogonalLoop=1;jettySize=auto;html=1;endArrow=none;startFill=0;" edge="1" parent="1" source="2hdaCkGYuWO3uLKrf5wz-33" target="2hdaCkGYuWO3uLKrf5wz-34">
          <mxGeometry relative="1" as="geometry">
            <mxPoint x="711" y="290" as="sourcePoint" />
            <mxPoint x="763" y="323" as="targetPoint" />
          </mxGeometry>
        </mxCell>
        <mxCell id="2hdaCkGYuWO3uLKrf5wz-47" style="rounded=0;orthogonalLoop=1;jettySize=auto;html=1;endArrow=none;startFill=0;" edge="1" parent="1" source="2hdaCkGYuWO3uLKrf5wz-33" target="2hdaCkGYuWO3uLKrf5wz-35">
          <mxGeometry relative="1" as="geometry">
            <mxPoint x="913" y="470" as="sourcePoint" />
            <mxPoint x="939" y="448" as="targetPoint" />
          </mxGeometry>
        </mxCell>
        <mxCell id="2hdaCkGYuWO3uLKrf5wz-48" style="rounded=0;orthogonalLoop=1;jettySize=auto;html=1;endArrow=none;startFill=0;" edge="1" parent="1" source="2hdaCkGYuWO3uLKrf5wz-13" target="2hdaCkGYuWO3uLKrf5wz-32">
          <mxGeometry relative="1" as="geometry">
            <mxPoint x="1010" y="69" as="sourcePoint" />
            <mxPoint x="1024" y="72" as="targetPoint" />
          </mxGeometry>
        </mxCell>
        <mxCell id="2hdaCkGYuWO3uLKrf5wz-49" style="rounded=0;orthogonalLoop=1;jettySize=auto;html=1;endArrow=none;startFill=0;" edge="1" parent="1" source="2hdaCkGYuWO3uLKrf5wz-13" target="2hdaCkGYuWO3uLKrf5wz-15">
          <mxGeometry relative="1" as="geometry">
            <mxPoint x="927" y="200" as="sourcePoint" />
            <mxPoint x="970" y="176" as="targetPoint" />
          </mxGeometry>
        </mxCell>
        <mxCell id="2hdaCkGYuWO3uLKrf5wz-50" style="rounded=0;orthogonalLoop=1;jettySize=auto;html=1;endArrow=none;startFill=0;" edge="1" parent="1" source="2hdaCkGYuWO3uLKrf5wz-13" target="2hdaCkGYuWO3uLKrf5wz-19">
          <mxGeometry relative="1" as="geometry">
            <mxPoint x="940" y="220" as="sourcePoint" />
            <mxPoint x="990" y="220" as="targetPoint" />
          </mxGeometry>
        </mxCell>
        <mxCell id="2hdaCkGYuWO3uLKrf5wz-51" style="rounded=0;orthogonalLoop=1;jettySize=auto;html=1;endArrow=none;startFill=0;" edge="1" parent="1" source="2hdaCkGYuWO3uLKrf5wz-13" target="2hdaCkGYuWO3uLKrf5wz-20">
          <mxGeometry relative="1" as="geometry">
            <mxPoint x="933" y="240" as="sourcePoint" />
            <mxPoint x="987" y="265" as="targetPoint" />
          </mxGeometry>
        </mxCell>
        <mxCell id="2hdaCkGYuWO3uLKrf5wz-52" style="rounded=0;orthogonalLoop=1;jettySize=auto;html=1;endArrow=none;startFill=0;" edge="1" parent="1" source="2hdaCkGYuWO3uLKrf5wz-13" target="2hdaCkGYuWO3uLKrf5wz-29">
          <mxGeometry relative="1" as="geometry">
            <mxPoint x="896" y="240" as="sourcePoint" />
            <mxPoint x="904" y="270" as="targetPoint" />
          </mxGeometry>
        </mxCell>
        <mxCell id="2hdaCkGYuWO3uLKrf5wz-53" style="rounded=0;orthogonalLoop=1;jettySize=auto;html=1;endArrow=none;startFill=0;" edge="1" parent="1" source="2hdaCkGYuWO3uLKrf5wz-13" target="2hdaCkGYuWO3uLKrf5wz-30">
          <mxGeometry relative="1" as="geometry">
            <mxPoint x="861" y="240" as="sourcePoint" />
            <mxPoint x="815" y="273" as="targetPoint" />
          </mxGeometry>
        </mxCell>
        <mxCell id="2hdaCkGYuWO3uLKrf5wz-54" style="rounded=0;orthogonalLoop=1;jettySize=auto;html=1;endArrow=none;startFill=0;" edge="1" parent="1" source="2hdaCkGYuWO3uLKrf5wz-13" target="2hdaCkGYuWO3uLKrf5wz-14">
          <mxGeometry relative="1" as="geometry">
            <mxPoint x="840" y="220" as="sourcePoint" />
            <mxPoint x="800" y="220" as="targetPoint" />
          </mxGeometry>
        </mxCell>
        <mxCell id="2hdaCkGYuWO3uLKrf5wz-55" style="rounded=0;orthogonalLoop=1;jettySize=auto;html=1;endArrow=none;startFill=0;" edge="1" parent="1" source="2hdaCkGYuWO3uLKrf5wz-16" target="2hdaCkGYuWO3uLKrf5wz-18">
          <mxGeometry relative="1" as="geometry">
            <mxPoint x="590" y="290" as="sourcePoint" />
            <mxPoint x="559" y="259" as="targetPoint" />
          </mxGeometry>
        </mxCell>
        <mxCell id="2hdaCkGYuWO3uLKrf5wz-56" style="rounded=0;orthogonalLoop=1;jettySize=auto;html=1;endArrow=none;startFill=0;" edge="1" parent="1" source="2hdaCkGYuWO3uLKrf5wz-16" target="2hdaCkGYuWO3uLKrf5wz-17">
          <mxGeometry relative="1" as="geometry">
            <mxPoint x="623" y="510" as="sourcePoint" />
            <mxPoint x="596" y="541" as="targetPoint" />
          </mxGeometry>
        </mxCell>
        <mxCell id="2hdaCkGYuWO3uLKrf5wz-57" style="rounded=0;orthogonalLoop=1;jettySize=auto;html=1;endArrow=none;startFill=0;" edge="1" parent="1" source="2hdaCkGYuWO3uLKrf5wz-21" target="2hdaCkGYuWO3uLKrf5wz-22">
          <mxGeometry relative="1" as="geometry">
            <mxPoint x="1343" y="570" as="sourcePoint" />
            <mxPoint x="1379" y="602" as="targetPoint" />
          </mxGeometry>
        </mxCell>
        <mxCell id="2hdaCkGYuWO3uLKrf5wz-58" style="rounded=0;orthogonalLoop=1;jettySize=auto;html=1;endArrow=none;startFill=0;" edge="1" parent="1" source="2hdaCkGYuWO3uLKrf5wz-31" target="2hdaCkGYuWO3uLKrf5wz-21">
          <mxGeometry relative="1" as="geometry">
            <mxPoint x="960" y="590" as="sourcePoint" />
            <mxPoint x="909" y="641" as="targetPoint" />
          </mxGeometry>
        </mxCell>
        <mxCell id="2hdaCkGYuWO3uLKrf5wz-59" style="rounded=0;orthogonalLoop=1;jettySize=auto;html=1;endArrow=none;startFill=0;" edge="1" parent="1" source="2hdaCkGYuWO3uLKrf5wz-21" target="2hdaCkGYuWO3uLKrf5wz-23">
          <mxGeometry relative="1" as="geometry">
            <mxPoint x="910" y="570" as="sourcePoint" />
            <mxPoint x="930" y="570" as="targetPoint" />
          </mxGeometry>
        </mxCell>
        <mxCell id="2hdaCkGYuWO3uLKrf5wz-60" value="HAS" style="shape=rhombus;perimeter=rhombusPerimeter;whiteSpace=wrap;html=1;align=center;" vertex="1" parent="1">
          <mxGeometry x="600" y="240" width="120" height="60" as="geometry" />
        </mxCell>
        <mxCell id="2hdaCkGYuWO3uLKrf5wz-61" style="rounded=0;orthogonalLoop=1;jettySize=auto;html=1;endArrow=none;startFill=0;shape=link;" edge="1" parent="1" source="2hdaCkGYuWO3uLKrf5wz-60" target="2hdaCkGYuWO3uLKrf5wz-13">
          <mxGeometry relative="1" as="geometry">
            <mxPoint x="855" y="260" as="sourcePoint" />
            <mxPoint x="1006" y="59" as="targetPoint" />
          </mxGeometry>
        </mxCell>
        <mxCell id="2hdaCkGYuWO3uLKrf5wz-63" value="N" style="edgeLabel;html=1;align=center;verticalAlign=middle;resizable=0;points=[];" vertex="1" connectable="0" parent="2hdaCkGYuWO3uLKrf5wz-61">
          <mxGeometry x="0.6748" relative="1" as="geometry">
            <mxPoint x="-20" as="offset" />
          </mxGeometry>
        </mxCell>
        <mxCell id="2hdaCkGYuWO3uLKrf5wz-62" style="rounded=0;orthogonalLoop=1;jettySize=auto;html=1;endArrow=none;startFill=0;" edge="1" parent="1" source="2hdaCkGYuWO3uLKrf5wz-60" target="2hdaCkGYuWO3uLKrf5wz-1">
          <mxGeometry relative="1" as="geometry">
            <mxPoint x="694" y="337" as="sourcePoint" />
            <mxPoint x="790" y="299" as="targetPoint" />
          </mxGeometry>
        </mxCell>
        <mxCell id="2hdaCkGYuWO3uLKrf5wz-64" value="1" style="edgeLabel;html=1;align=center;verticalAlign=middle;resizable=0;points=[];" vertex="1" connectable="0" parent="2hdaCkGYuWO3uLKrf5wz-62">
          <mxGeometry x="0.5748" relative="1" as="geometry">
            <mxPoint x="20" as="offset" />
          </mxGeometry>
        </mxCell>
        <mxCell id="2hdaCkGYuWO3uLKrf5wz-68" style="rounded=0;orthogonalLoop=1;jettySize=auto;html=1;endArrow=none;startFill=0;shape=link;" edge="1" source="2hdaCkGYuWO3uLKrf5wz-70" parent="1" target="2hdaCkGYuWO3uLKrf5wz-33">
          <mxGeometry relative="1" as="geometry">
            <mxPoint x="875" y="400" as="sourcePoint" />
            <mxPoint x="800" y="410" as="targetPoint" />
          </mxGeometry>
        </mxCell>
        <mxCell id="2hdaCkGYuWO3uLKrf5wz-69" value="N" style="edgeLabel;html=1;align=center;verticalAlign=middle;resizable=0;points=[];" vertex="1" connectable="0" parent="2hdaCkGYuWO3uLKrf5wz-68">
          <mxGeometry x="0.6748" relative="1" as="geometry">
            <mxPoint x="-8" y="-20" as="offset" />
          </mxGeometry>
        </mxCell>
        <mxCell id="2hdaCkGYuWO3uLKrf5wz-70" value="HAS" style="shape=rhombus;perimeter=rhombusPerimeter;whiteSpace=wrap;html=1;align=center;" vertex="1" parent="1">
          <mxGeometry x="1030" y="410" width="120" height="60" as="geometry" />
        </mxCell>
        <mxCell id="2hdaCkGYuWO3uLKrf5wz-71" style="rounded=0;orthogonalLoop=1;jettySize=auto;html=1;endArrow=none;startFill=0;" edge="1" source="2hdaCkGYuWO3uLKrf5wz-70" parent="1" target="2hdaCkGYuWO3uLKrf5wz-13">
          <mxGeometry relative="1" as="geometry">
            <mxPoint x="714" y="477" as="sourcePoint" />
            <mxPoint x="540" y="410" as="targetPoint" />
          </mxGeometry>
        </mxCell>
        <mxCell id="2hdaCkGYuWO3uLKrf5wz-72" value="1" style="edgeLabel;html=1;align=center;verticalAlign=middle;resizable=0;points=[];" vertex="1" connectable="0" parent="2hdaCkGYuWO3uLKrf5wz-71">
          <mxGeometry x="0.5748" relative="1" as="geometry">
            <mxPoint x="46" y="32" as="offset" />
          </mxGeometry>
        </mxCell>
        <mxCell id="2hdaCkGYuWO3uLKrf5wz-73" style="rounded=0;orthogonalLoop=1;jettySize=auto;html=1;endArrow=none;startFill=0;shape=link;" edge="1" source="2hdaCkGYuWO3uLKrf5wz-75" parent="1" target="2hdaCkGYuWO3uLKrf5wz-16">
          <mxGeometry relative="1" as="geometry">
            <mxPoint x="765" y="410" as="sourcePoint" />
            <mxPoint x="720" y="490" as="targetPoint" />
          </mxGeometry>
        </mxCell>
        <mxCell id="2hdaCkGYuWO3uLKrf5wz-74" value="N" style="edgeLabel;html=1;align=center;verticalAlign=middle;resizable=0;points=[];" vertex="1" connectable="0" parent="2hdaCkGYuWO3uLKrf5wz-73">
          <mxGeometry x="0.6748" relative="1" as="geometry">
            <mxPoint x="2" y="-20" as="offset" />
          </mxGeometry>
        </mxCell>
        <mxCell id="2hdaCkGYuWO3uLKrf5wz-75" value="HAS" style="shape=rhombus;perimeter=rhombusPerimeter;whiteSpace=wrap;html=1;align=center;" vertex="1" parent="1">
          <mxGeometry x="600" y="350" width="120" height="60" as="geometry" />
        </mxCell>
        <mxCell id="2hdaCkGYuWO3uLKrf5wz-76" style="rounded=0;orthogonalLoop=1;jettySize=auto;html=1;endArrow=none;startFill=0;" edge="1" source="2hdaCkGYuWO3uLKrf5wz-75" parent="1" target="2hdaCkGYuWO3uLKrf5wz-13">
          <mxGeometry relative="1" as="geometry">
            <mxPoint x="604" y="487" as="sourcePoint" />
            <mxPoint x="720" y="300" as="targetPoint" />
          </mxGeometry>
        </mxCell>
        <mxCell id="2hdaCkGYuWO3uLKrf5wz-77" value="1" style="edgeLabel;html=1;align=center;verticalAlign=middle;resizable=0;points=[];" vertex="1" connectable="0" parent="2hdaCkGYuWO3uLKrf5wz-76">
          <mxGeometry x="0.5748" relative="1" as="geometry">
            <mxPoint x="-25" y="15" as="offset" />
          </mxGeometry>
        </mxCell>
        <mxCell id="2hdaCkGYuWO3uLKrf5wz-78" value="ADMIN" style="rounded=1;arcSize=10;whiteSpace=wrap;html=1;align=center;" vertex="1" parent="1">
          <mxGeometry x="260" y="480" width="100" height="40" as="geometry" />
        </mxCell>
        <mxCell id="2hdaCkGYuWO3uLKrf5wz-79" value="DEALER" style="rounded=1;arcSize=10;whiteSpace=wrap;html=1;align=center;" vertex="1" parent="1">
          <mxGeometry x="100" y="480" width="100" height="40" as="geometry" />
        </mxCell>
        <mxCell id="2hdaCkGYuWO3uLKrf5wz-80" value="MEMBER" style="rounded=1;arcSize=10;whiteSpace=wrap;html=1;align=center;" vertex="1" parent="1">
          <mxGeometry x="420" y="480" width="100" height="40" as="geometry" />
        </mxCell>
        <mxCell id="2hdaCkGYuWO3uLKrf5wz-81" style="rounded=0;orthogonalLoop=1;jettySize=auto;html=1;endArrow=none;startFill=0;" edge="1" parent="1" source="2hdaCkGYuWO3uLKrf5wz-79" target="2hdaCkGYuWO3uLKrf5wz-91">
          <mxGeometry relative="1" as="geometry">
            <mxPoint x="350" y="453" as="sourcePoint" />
            <mxPoint x="340" y="370" as="targetPoint" />
          </mxGeometry>
        </mxCell>
        <mxCell id="2hdaCkGYuWO3uLKrf5wz-83" style="rounded=0;orthogonalLoop=1;jettySize=auto;html=1;endArrow=none;startFill=0;" edge="1" parent="1" source="2hdaCkGYuWO3uLKrf5wz-78" target="2hdaCkGYuWO3uLKrf5wz-91">
          <mxGeometry relative="1" as="geometry">
            <mxPoint x="191" y="490" as="sourcePoint" />
            <mxPoint x="360" y="390" as="targetPoint" />
          </mxGeometry>
        </mxCell>
        <mxCell id="2hdaCkGYuWO3uLKrf5wz-84" style="rounded=0;orthogonalLoop=1;jettySize=auto;html=1;endArrow=none;startFill=0;" edge="1" parent="1" source="2hdaCkGYuWO3uLKrf5wz-80" target="2hdaCkGYuWO3uLKrf5wz-91">
          <mxGeometry relative="1" as="geometry">
            <mxPoint x="329" y="490" as="sourcePoint" />
            <mxPoint x="420" y="400" as="targetPoint" />
          </mxGeometry>
        </mxCell>
        <mxCell id="2hdaCkGYuWO3uLKrf5wz-85" style="rounded=0;orthogonalLoop=1;jettySize=auto;html=1;endArrow=none;startFill=0;shape=link;" edge="1" parent="1" source="2hdaCkGYuWO3uLKrf5wz-1" target="2hdaCkGYuWO3uLKrf5wz-91">
          <mxGeometry relative="1" as="geometry">
            <mxPoint x="670" y="420" as="sourcePoint" />
            <mxPoint x="400" y="360" as="targetPoint" />
          </mxGeometry>
        </mxCell>
        <mxCell id="2hdaCkGYuWO3uLKrf5wz-87" value="" style="shape=requiredInterface;html=1;verticalLabelPosition=bottom;sketch=0;rotation=150;" vertex="1" parent="1">
          <mxGeometry x="270" y="400" width="20" height="40" as="geometry" />
        </mxCell>
        <mxCell id="2hdaCkGYuWO3uLKrf5wz-88" value="" style="shape=requiredInterface;html=1;verticalLabelPosition=bottom;sketch=0;rotation=60;" vertex="1" parent="1">
          <mxGeometry x="425" y="410" width="20" height="40" as="geometry" />
        </mxCell>
        <mxCell id="2hdaCkGYuWO3uLKrf5wz-90" value="" style="shape=requiredInterface;html=1;verticalLabelPosition=bottom;sketch=0;rotation=120;" vertex="1" parent="1">
          <mxGeometry x="340" y="400" width="20" height="40" as="geometry" />
        </mxCell>
        <mxCell id="2hdaCkGYuWO3uLKrf5wz-91" value="" style="ellipse;whiteSpace=wrap;html=1;aspect=fixed;" vertex="1" parent="1">
          <mxGeometry x="350" y="310" width="80" height="80" as="geometry" />
        </mxCell>
        <mxCell id="2hdaCkGYuWO3uLKrf5wz-92" style="rounded=0;orthogonalLoop=1;jettySize=auto;html=1;endArrow=none;startFill=0;" edge="1" source="2hdaCkGYuWO3uLKrf5wz-94" parent="1" target="2hdaCkGYuWO3uLKrf5wz-80">
          <mxGeometry relative="1" as="geometry">
            <mxPoint x="355" y="717" as="sourcePoint" />
            <mxPoint x="550" y="520" as="targetPoint" />
          </mxGeometry>
        </mxCell>
        <mxCell id="2hdaCkGYuWO3uLKrf5wz-93" value="1" style="edgeLabel;html=1;align=center;verticalAlign=middle;resizable=0;points=[];" vertex="1" connectable="0" parent="2hdaCkGYuWO3uLKrf5wz-92">
          <mxGeometry x="0.5748" relative="1" as="geometry">
            <mxPoint x="1" y="15" as="offset" />
          </mxGeometry>
        </mxCell>
        <mxCell id="2hdaCkGYuWO3uLKrf5wz-94" value="HAS" style="shape=rhombus;perimeter=rhombusPerimeter;whiteSpace=wrap;html=1;align=center;" vertex="1" parent="1">
          <mxGeometry x="440" y="610" width="120" height="60" as="geometry" />
        </mxCell>
        <mxCell id="2hdaCkGYuWO3uLKrf5wz-95" style="rounded=0;orthogonalLoop=1;jettySize=auto;html=1;endArrow=none;startFill=0;shape=link;" edge="1" source="2hdaCkGYuWO3uLKrf5wz-94" parent="1" target="2hdaCkGYuWO3uLKrf5wz-7">
          <mxGeometry relative="1" as="geometry">
            <mxPoint x="516" y="640" as="sourcePoint" />
            <mxPoint x="411" y="710" as="targetPoint" />
          </mxGeometry>
        </mxCell>
        <mxCell id="2hdaCkGYuWO3uLKrf5wz-96" value="N" style="edgeLabel;html=1;align=center;verticalAlign=middle;resizable=0;points=[];" vertex="1" connectable="0" parent="2hdaCkGYuWO3uLKrf5wz-95">
          <mxGeometry x="0.6748" relative="1" as="geometry">
            <mxPoint x="25" y="-3" as="offset" />
          </mxGeometry>
        </mxCell>
        <mxCell id="2hdaCkGYuWO3uLKrf5wz-97" value="HAS" style="shape=rhombus;perimeter=rhombusPerimeter;whiteSpace=wrap;html=1;align=center;" vertex="1" parent="1">
          <mxGeometry x="50" y="600" width="120" height="60" as="geometry" />
        </mxCell>
        <mxCell id="2hdaCkGYuWO3uLKrf5wz-98" style="rounded=0;orthogonalLoop=1;jettySize=auto;html=1;endArrow=none;startFill=0;" edge="1" source="2hdaCkGYuWO3uLKrf5wz-97" parent="1" target="2hdaCkGYuWO3uLKrf5wz-79">
          <mxGeometry relative="1" as="geometry">
            <mxPoint x="60" y="737" as="sourcePoint" />
            <mxPoint x="175" y="540" as="targetPoint" />
          </mxGeometry>
        </mxCell>
        <mxCell id="2hdaCkGYuWO3uLKrf5wz-99" value="1" style="edgeLabel;html=1;align=center;verticalAlign=middle;resizable=0;points=[];" vertex="1" connectable="0" parent="2hdaCkGYuWO3uLKrf5wz-98">
          <mxGeometry x="0.5748" relative="1" as="geometry">
            <mxPoint x="1" y="15" as="offset" />
          </mxGeometry>
        </mxCell>
        <mxCell id="2hdaCkGYuWO3uLKrf5wz-100" style="rounded=0;orthogonalLoop=1;jettySize=auto;html=1;endArrow=none;startFill=0;shape=link;" edge="1" source="2hdaCkGYuWO3uLKrf5wz-97" parent="1" target="2hdaCkGYuWO3uLKrf5wz-7">
          <mxGeometry relative="1" as="geometry">
            <mxPoint x="221" y="660" as="sourcePoint" />
            <mxPoint x="65" y="648" as="targetPoint" />
          </mxGeometry>
        </mxCell>
        <mxCell id="2hdaCkGYuWO3uLKrf5wz-101" value="N" style="edgeLabel;html=1;align=center;verticalAlign=middle;resizable=0;points=[];" vertex="1" connectable="0" parent="2hdaCkGYuWO3uLKrf5wz-100">
          <mxGeometry x="0.6748" relative="1" as="geometry">
            <mxPoint x="-34" y="-7" as="offset" />
          </mxGeometry>
        </mxCell>
        <mxCell id="2hdaCkGYuWO3uLKrf5wz-102" style="rounded=0;orthogonalLoop=1;jettySize=auto;html=1;endArrow=none;startFill=0;shape=link;" edge="1" parent="1" source="2hdaCkGYuWO3uLKrf5wz-13" target="2hdaCkGYuWO3uLKrf5wz-104">
          <mxGeometry relative="1" as="geometry">
            <mxPoint x="838" y="280" as="sourcePoint" />
            <mxPoint x="860" y="335" as="targetPoint" />
          </mxGeometry>
        </mxCell>
        <mxCell id="2hdaCkGYuWO3uLKrf5wz-103" value="N" style="edgeLabel;html=1;align=center;verticalAlign=middle;resizable=0;points=[];" vertex="1" connectable="0" parent="2hdaCkGYuWO3uLKrf5wz-102">
          <mxGeometry x="0.6748" relative="1" as="geometry">
            <mxPoint x="-8" y="-20" as="offset" />
          </mxGeometry>
        </mxCell>
        <mxCell id="2hdaCkGYuWO3uLKrf5wz-104" value="HAS" style="shape=rhombus;perimeter=rhombusPerimeter;whiteSpace=wrap;html=1;align=center;" vertex="1" parent="1">
          <mxGeometry x="830" y="370" width="120" height="60" as="geometry" />
        </mxCell>
        <mxCell id="2hdaCkGYuWO3uLKrf5wz-105" style="rounded=0;orthogonalLoop=1;jettySize=auto;html=1;endArrow=none;startFill=0;shape=link;" edge="1" parent="1" source="2hdaCkGYuWO3uLKrf5wz-104" target="2hdaCkGYuWO3uLKrf5wz-21">
          <mxGeometry relative="1" as="geometry">
            <mxPoint x="845" y="300" as="sourcePoint" />
            <mxPoint x="863" y="373" as="targetPoint" />
          </mxGeometry>
        </mxCell>
        <mxCell id="2hdaCkGYuWO3uLKrf5wz-106" value="N" style="edgeLabel;html=1;align=center;verticalAlign=middle;resizable=0;points=[];" vertex="1" connectable="0" parent="2hdaCkGYuWO3uLKrf5wz-105">
          <mxGeometry x="0.6748" relative="1" as="geometry">
            <mxPoint x="-8" y="-20" as="offset" />
          </mxGeometry>
        </mxCell>
      </root>
    </mxGraphModel>
  </diagram>
</mxfile>
